<mxfile host="app.diagrams.net" modified="2022-06-13T08:34:53.753Z" agent="5.0 (Windows NT 10.0; Win64; x64) AppleWebKit/537.36 (KHTML, like Gecko) Chrome/100.0.4896.127 Safari/537.36 OPR/86.0.4363.70" etag="V8bTn-w3uXs7qArnBTH1" version="20.0.1" type="github">
  <diagram id="gwmi-vWLNNywbSeCiVMa" name="Page-1">
    <mxGraphModel dx="1625" dy="889" grid="1" gridSize="10" guides="1" tooltips="1" connect="1" arrows="1" fold="1" page="1" pageScale="1" pageWidth="827" pageHeight="1169" math="0" shadow="0">
      <root>
        <mxCell id="0" />
        <mxCell id="1" parent="0" />
        <mxCell id="ezdcHsapc2x5eiXMY743-14" value="" style="rounded=0;whiteSpace=wrap;html=1;labelBackgroundColor=#ffffff;fontSize=20;fontColor=#000000;fillColor=none;dashed=1;strokeWidth=2;" vertex="1" parent="1">
          <mxGeometry x="10" y="1400" width="810" height="480" as="geometry" />
        </mxCell>
        <mxCell id="ou2Xe9rBMR-__PMlJNGh-15" value="" style="rounded=0;whiteSpace=wrap;html=1;labelBackgroundColor=#ffffff;fontSize=20;fontColor=#000000;fillColor=none;dashed=1;strokeWidth=2;" parent="1" vertex="1">
          <mxGeometry x="280" y="350" width="450" height="130" as="geometry" />
        </mxCell>
        <mxCell id="ou2Xe9rBMR-__PMlJNGh-1" value="Client" style="shape=umlActor;verticalLabelPosition=bottom;verticalAlign=top;html=1;outlineConnect=0;" parent="1" vertex="1">
          <mxGeometry x="373.25" y="40" width="80.5" height="150" as="geometry" />
        </mxCell>
        <mxCell id="ou2Xe9rBMR-__PMlJNGh-2" value="&lt;font style=&quot;font-size: 48px;&quot;&gt;REST API&lt;/font&gt;" style="rounded=1;whiteSpace=wrap;html=1;fillColor=#26B7FF;" parent="1" vertex="1">
          <mxGeometry x="40" y="410" width="720" height="80" as="geometry" />
        </mxCell>
        <mxCell id="ou2Xe9rBMR-__PMlJNGh-3" value="&lt;font style=&quot;font-size: 48px;&quot;&gt;SERVICE LAYER&lt;/font&gt;" style="rounded=1;whiteSpace=wrap;html=1;fillColor=#26B7FF;" parent="1" vertex="1">
          <mxGeometry x="40" y="650" width="720" height="80" as="geometry" />
        </mxCell>
        <mxCell id="ou2Xe9rBMR-__PMlJNGh-4" value="&lt;font style=&quot;font-size: 48px;&quot;&gt;REPOSITORY LAYER&lt;/font&gt;" style="rounded=1;whiteSpace=wrap;html=1;fillColor=#26B7FF;" parent="1" vertex="1">
          <mxGeometry x="40" y="880" width="720" height="80" as="geometry" />
        </mxCell>
        <mxCell id="ou2Xe9rBMR-__PMlJNGh-5" value="DB" style="shape=datastore;whiteSpace=wrap;html=1;fontSize=48;fillColor=#E6E6E6;" parent="1" vertex="1">
          <mxGeometry x="353" y="1160" width="121" height="110" as="geometry" />
        </mxCell>
        <mxCell id="ou2Xe9rBMR-__PMlJNGh-6" value="" style="shape=flexArrow;endArrow=classic;startArrow=none;html=1;rounded=0;fontSize=48;entryX=0.521;entryY=1.05;entryDx=0;entryDy=0;entryPerimeter=0;" parent="1" source="ou2Xe9rBMR-__PMlJNGh-7" target="ou2Xe9rBMR-__PMlJNGh-4" edge="1">
          <mxGeometry width="100" height="100" relative="1" as="geometry">
            <mxPoint x="380" y="1140" as="sourcePoint" />
            <mxPoint x="480" y="1040" as="targetPoint" />
          </mxGeometry>
        </mxCell>
        <mxCell id="ou2Xe9rBMR-__PMlJNGh-7" value="&lt;div style=&quot;&quot;&gt;&lt;span style=&quot;color: rgb(255, 128, 0); background-color: initial; line-height: 1;&quot;&gt;&lt;font style=&quot;font-size: 24px;&quot;&gt;CRUD&lt;/font&gt;&lt;/span&gt;&lt;/div&gt;&lt;font style=&quot;font-size: 24px; line-height: 0.5;&quot; color=&quot;#ff8000&quot;&gt;&lt;div style=&quot;&quot;&gt;&lt;span style=&quot;background-color: initial;&quot;&gt;create, read, update, delete&lt;/span&gt;&lt;/div&gt;&lt;/font&gt;" style="text;html=1;align=center;verticalAlign=middle;resizable=0;points=[];autosize=1;strokeColor=none;fillColor=none;fontSize=48;" parent="1" vertex="1">
          <mxGeometry x="259" y="1000" width="310" height="80" as="geometry" />
        </mxCell>
        <mxCell id="ou2Xe9rBMR-__PMlJNGh-8" value="" style="shape=flexArrow;endArrow=none;startArrow=classic;html=1;rounded=0;fontSize=48;exitX=0.5;exitY=0;exitDx=0;exitDy=0;" parent="1" source="ou2Xe9rBMR-__PMlJNGh-5" edge="1">
          <mxGeometry width="100" height="100" relative="1" as="geometry">
            <mxPoint x="414" y="1140" as="sourcePoint" />
            <mxPoint x="414" y="1090" as="targetPoint" />
          </mxGeometry>
        </mxCell>
        <mxCell id="ou2Xe9rBMR-__PMlJNGh-9" value="&lt;font color=&quot;#000000&quot;&gt;login&lt;/font&gt;" style="rounded=1;whiteSpace=wrap;html=1;fontSize=24;fontColor=#FF8000;fillColor=#FF3333;" parent="1" vertex="1">
          <mxGeometry x="70" y="370" width="90" height="50" as="geometry" />
        </mxCell>
        <mxCell id="ou2Xe9rBMR-__PMlJNGh-10" value="&lt;font color=&quot;#000000&quot;&gt;register&lt;br&gt;own&lt;br&gt;&lt;/font&gt;" style="rounded=1;whiteSpace=wrap;html=1;fontSize=24;fontColor=#FF8000;fillColor=#FF3333;" parent="1" vertex="1">
          <mxGeometry x="180" y="370" width="90" height="50" as="geometry" />
        </mxCell>
        <mxCell id="ou2Xe9rBMR-__PMlJNGh-11" value="&lt;font color=&quot;#000000&quot;&gt;register admin&lt;/font&gt;" style="rounded=1;whiteSpace=wrap;html=1;fontSize=24;fontColor=#FF8000;fillColor=#FF3333;" parent="1" vertex="1">
          <mxGeometry x="290" y="370" width="90" height="50" as="geometry" />
        </mxCell>
        <mxCell id="ou2Xe9rBMR-__PMlJNGh-12" value="&lt;font style=&quot;font-size: 20px;&quot; color=&quot;#000000&quot;&gt;CRUD for admin&lt;/font&gt;" style="rounded=1;whiteSpace=wrap;html=1;fontSize=24;fontColor=#FF8000;fillColor=#FF3333;" parent="1" vertex="1">
          <mxGeometry x="400" y="370" width="90" height="50" as="geometry" />
        </mxCell>
        <mxCell id="ou2Xe9rBMR-__PMlJNGh-13" value="&lt;font color=&quot;#000000&quot;&gt;update own&lt;/font&gt;" style="rounded=1;whiteSpace=wrap;html=1;fontSize=24;fontColor=#FF8000;fillColor=#FF3333;" parent="1" vertex="1">
          <mxGeometry x="510" y="370" width="90" height="50" as="geometry" />
        </mxCell>
        <mxCell id="ou2Xe9rBMR-__PMlJNGh-14" value="&lt;font color=&quot;#000000&quot;&gt;Juez score&lt;/font&gt;" style="rounded=1;whiteSpace=wrap;html=1;fontSize=24;fontColor=#FF8000;fillColor=#FF3333;" parent="1" vertex="1">
          <mxGeometry x="620" y="370" width="90" height="50" as="geometry" />
        </mxCell>
        <mxCell id="ou2Xe9rBMR-__PMlJNGh-16" value="&lt;font color=&quot;#ff8000&quot;&gt;JWT protected&lt;/font&gt;" style="text;html=1;align=center;verticalAlign=middle;resizable=0;points=[];autosize=1;strokeColor=none;fillColor=none;fontSize=20;fontColor=#000000;" parent="1" vertex="1">
          <mxGeometry x="430" y="310" width="150" height="30" as="geometry" />
        </mxCell>
        <mxCell id="ou2Xe9rBMR-__PMlJNGh-17" value="" style="shape=flexArrow;endArrow=classic;startArrow=classic;html=1;rounded=0;fontSize=20;fontColor=#FF8000;strokeColor=#000000;fillColor=#FFFF00;" parent="1" edge="1">
          <mxGeometry width="100" height="100" relative="1" as="geometry">
            <mxPoint x="413.75" y="340" as="sourcePoint" />
            <mxPoint x="413.75" y="220" as="targetPoint" />
          </mxGeometry>
        </mxCell>
        <mxCell id="ou2Xe9rBMR-__PMlJNGh-18" value="&lt;font color=&quot;#000000&quot;&gt;login&lt;/font&gt;" style="rounded=1;whiteSpace=wrap;html=1;fontSize=24;fontColor=#FF8000;fillColor=#FF3333;" parent="1" vertex="1">
          <mxGeometry x="70" y="610" width="90" height="50" as="geometry" />
        </mxCell>
        <mxCell id="ou2Xe9rBMR-__PMlJNGh-19" value="&lt;font color=&quot;#000000&quot;&gt;register&lt;br&gt;&lt;/font&gt;" style="rounded=1;whiteSpace=wrap;html=1;fontSize=24;fontColor=#FF8000;fillColor=#FF3333;" parent="1" vertex="1">
          <mxGeometry x="210" y="610" width="90" height="50" as="geometry" />
        </mxCell>
        <mxCell id="ou2Xe9rBMR-__PMlJNGh-20" value="&lt;font color=&quot;#000000&quot;&gt;Juez score&lt;/font&gt;" style="rounded=1;whiteSpace=wrap;html=1;fontSize=24;fontColor=#FF8000;fillColor=#FF3333;" parent="1" vertex="1">
          <mxGeometry x="630" y="610" width="90" height="50" as="geometry" />
        </mxCell>
        <mxCell id="ou2Xe9rBMR-__PMlJNGh-21" value="&lt;font color=&quot;#000000&quot;&gt;update&lt;/font&gt;" style="rounded=1;whiteSpace=wrap;html=1;fontSize=24;fontColor=#FF8000;fillColor=#FF3333;" parent="1" vertex="1">
          <mxGeometry x="349.5" y="610" width="90" height="50" as="geometry" />
        </mxCell>
        <mxCell id="ou2Xe9rBMR-__PMlJNGh-22" value="&lt;font color=&quot;#000000&quot;&gt;delete&lt;/font&gt;" style="rounded=1;whiteSpace=wrap;html=1;fontSize=24;fontColor=#FF8000;fillColor=#FF3333;" parent="1" vertex="1">
          <mxGeometry x="490" y="610" width="90" height="50" as="geometry" />
        </mxCell>
        <mxCell id="ou2Xe9rBMR-__PMlJNGh-23" value="" style="endArrow=classic;startArrow=classic;html=1;fontSize=20;fontColor=#FF8000;strokeColor=#000000;fillColor=#FFFF00;rounded=0;" parent="1" edge="1">
          <mxGeometry width="50" height="50" relative="1" as="geometry">
            <mxPoint x="413" y="600" as="sourcePoint" />
            <mxPoint x="413" y="500" as="targetPoint" />
          </mxGeometry>
        </mxCell>
        <mxCell id="ou2Xe9rBMR-__PMlJNGh-24" value="&lt;font color=&quot;#ff8000&quot;&gt;DTO&lt;/font&gt;" style="text;html=1;align=center;verticalAlign=middle;resizable=0;points=[];autosize=1;strokeColor=none;fillColor=none;fontSize=20;fontColor=#000000;" parent="1" vertex="1">
          <mxGeometry x="353" y="540" width="60" height="30" as="geometry" />
        </mxCell>
        <mxCell id="ou2Xe9rBMR-__PMlJNGh-25" value="" style="endArrow=classic;startArrow=classic;html=1;fontSize=20;fontColor=#FF8000;strokeColor=#000000;fillColor=#FFFF00;rounded=0;entryX=0.515;entryY=1.025;entryDx=0;entryDy=0;entryPerimeter=0;exitX=0.514;exitY=-0.025;exitDx=0;exitDy=0;exitPerimeter=0;" parent="1" source="ou2Xe9rBMR-__PMlJNGh-4" target="ou2Xe9rBMR-__PMlJNGh-3" edge="1">
          <mxGeometry width="50" height="50" relative="1" as="geometry">
            <mxPoint x="413" y="880" as="sourcePoint" />
            <mxPoint x="413" y="780" as="targetPoint" />
          </mxGeometry>
        </mxCell>
        <mxCell id="ou2Xe9rBMR-__PMlJNGh-26" value="&lt;font color=&quot;#ff8000&quot;&gt;Entity&lt;/font&gt;" style="text;html=1;align=center;verticalAlign=middle;resizable=0;points=[];autosize=1;strokeColor=none;fillColor=none;fontSize=20;fontColor=#000000;" parent="1" vertex="1">
          <mxGeometry x="335" y="790" width="70" height="30" as="geometry" />
        </mxCell>
        <mxCell id="ou2Xe9rBMR-__PMlJNGh-32" value="Personal" style="swimlane;childLayout=stackLayout;horizontal=1;startSize=30;horizontalStack=0;rounded=1;fontSize=14;fontStyle=0;strokeWidth=2;resizeParent=0;resizeLast=1;shadow=0;dashed=0;align=center;labelBackgroundColor=none;fontColor=#000000;fillColor=#00CC00;" parent="1" vertex="1">
          <mxGeometry x="329" y="1430" width="170" height="140" as="geometry" />
        </mxCell>
        <mxCell id="ou2Xe9rBMR-__PMlJNGh-33" value="- nombre String&#xa;- apellidos String &#xa;- dni String&#xa;- password String" style="align=left;strokeColor=none;fillColor=none;spacingLeft=4;fontSize=14;verticalAlign=top;resizable=0;rotatable=0;part=1;labelBackgroundColor=none;fontColor=#000000;" parent="ou2Xe9rBMR-__PMlJNGh-32" vertex="1">
          <mxGeometry y="30" width="170" height="110" as="geometry" />
        </mxCell>
        <mxCell id="ezdcHsapc2x5eiXMY743-10" style="edgeStyle=orthogonalEdgeStyle;rounded=0;orthogonalLoop=1;jettySize=auto;html=1;fontSize=14;fontColor=#000000;strokeColor=#000000;fillColor=#FFFF00;startArrow=classic;startFill=1;" edge="1" parent="1" source="ezdcHsapc2x5eiXMY743-1" target="ou2Xe9rBMR-__PMlJNGh-33">
          <mxGeometry relative="1" as="geometry" />
        </mxCell>
        <mxCell id="ezdcHsapc2x5eiXMY743-1" value="Periodista" style="swimlane;childLayout=stackLayout;horizontal=1;startSize=30;horizontalStack=0;rounded=1;fontSize=14;fontStyle=0;strokeWidth=2;resizeParent=0;resizeLast=1;shadow=0;dashed=0;align=center;labelBackgroundColor=none;fontColor=#000000;fillColor=#00CC00;" vertex="1" parent="1">
          <mxGeometry x="229" y="1690" width="170" height="170" as="geometry" />
        </mxCell>
        <mxCell id="ezdcHsapc2x5eiXMY743-2" value="- empresa String" style="align=left;strokeColor=none;fillColor=none;spacingLeft=4;fontSize=14;verticalAlign=top;resizable=0;rotatable=0;part=1;labelBackgroundColor=none;fontColor=#000000;" vertex="1" parent="ezdcHsapc2x5eiXMY743-1">
          <mxGeometry y="30" width="170" height="140" as="geometry" />
        </mxCell>
        <mxCell id="ezdcHsapc2x5eiXMY743-11" style="edgeStyle=orthogonalEdgeStyle;rounded=0;orthogonalLoop=1;jettySize=auto;html=1;entryX=0.5;entryY=1;entryDx=0;entryDy=0;fontSize=14;fontColor=#000000;strokeColor=#000000;fillColor=#FFFF00;startArrow=classic;startFill=1;" edge="1" parent="1" source="ezdcHsapc2x5eiXMY743-3" target="ou2Xe9rBMR-__PMlJNGh-33">
          <mxGeometry relative="1" as="geometry" />
        </mxCell>
        <mxCell id="ezdcHsapc2x5eiXMY743-3" value="Participante" style="swimlane;childLayout=stackLayout;horizontal=1;startSize=30;horizontalStack=0;rounded=1;fontSize=14;fontStyle=0;strokeWidth=2;resizeParent=0;resizeLast=1;shadow=0;dashed=0;align=center;labelBackgroundColor=none;fontColor=#000000;fillColor=#00CC00;" vertex="1" parent="1">
          <mxGeometry x="429" y="1690" width="170" height="170" as="geometry" />
        </mxCell>
        <mxCell id="ezdcHsapc2x5eiXMY743-4" value="- nacimiento LocalDate&#xa;- puntuacion int" style="align=left;strokeColor=none;fillColor=none;spacingLeft=4;fontSize=14;verticalAlign=top;resizable=0;rotatable=0;part=1;labelBackgroundColor=none;fontColor=#000000;" vertex="1" parent="ezdcHsapc2x5eiXMY743-3">
          <mxGeometry y="30" width="170" height="140" as="geometry" />
        </mxCell>
        <mxCell id="ezdcHsapc2x5eiXMY743-12" style="edgeStyle=orthogonalEdgeStyle;rounded=0;orthogonalLoop=1;jettySize=auto;html=1;fontSize=14;fontColor=#000000;strokeColor=#000000;fillColor=#FFFF00;startArrow=classic;startFill=1;" edge="1" parent="1" source="ezdcHsapc2x5eiXMY743-5" target="ou2Xe9rBMR-__PMlJNGh-33">
          <mxGeometry relative="1" as="geometry">
            <Array as="points">
              <mxPoint x="714" y="1630" />
              <mxPoint x="414" y="1630" />
            </Array>
          </mxGeometry>
        </mxCell>
        <mxCell id="ezdcHsapc2x5eiXMY743-5" value="Administrador" style="swimlane;childLayout=stackLayout;horizontal=1;startSize=30;horizontalStack=0;rounded=1;fontSize=14;fontStyle=0;strokeWidth=2;resizeParent=0;resizeLast=1;shadow=0;dashed=0;align=center;labelBackgroundColor=none;fontColor=#000000;fillColor=#00CC00;" vertex="1" parent="1">
          <mxGeometry x="629" y="1690" width="170" height="170" as="geometry" />
        </mxCell>
        <mxCell id="ezdcHsapc2x5eiXMY743-6" value="- fechaBaja LocalDate" style="align=left;strokeColor=none;fillColor=none;spacingLeft=4;fontSize=14;verticalAlign=top;resizable=0;rotatable=0;part=1;labelBackgroundColor=none;fontColor=#000000;" vertex="1" parent="ezdcHsapc2x5eiXMY743-5">
          <mxGeometry y="30" width="170" height="140" as="geometry" />
        </mxCell>
        <mxCell id="ezdcHsapc2x5eiXMY743-9" style="edgeStyle=orthogonalEdgeStyle;rounded=0;orthogonalLoop=1;jettySize=auto;html=1;entryX=0.5;entryY=1;entryDx=0;entryDy=0;fontSize=14;fontColor=#000000;strokeColor=#000000;fillColor=#FFFF00;startArrow=classic;startFill=1;" edge="1" parent="1" source="ezdcHsapc2x5eiXMY743-7" target="ou2Xe9rBMR-__PMlJNGh-33">
          <mxGeometry relative="1" as="geometry">
            <Array as="points">
              <mxPoint x="114" y="1630" />
              <mxPoint x="414" y="1630" />
            </Array>
          </mxGeometry>
        </mxCell>
        <mxCell id="ezdcHsapc2x5eiXMY743-7" value="Juez" style="swimlane;childLayout=stackLayout;horizontal=1;startSize=30;horizontalStack=0;rounded=1;fontSize=14;fontStyle=0;strokeWidth=2;resizeParent=0;resizeLast=1;shadow=0;dashed=0;align=center;labelBackgroundColor=none;fontColor=#000000;fillColor=#00CC00;" vertex="1" parent="1">
          <mxGeometry x="29" y="1690" width="170" height="170" as="geometry" />
        </mxCell>
        <mxCell id="ezdcHsapc2x5eiXMY743-8" value="- numeroJuez Long" style="align=left;strokeColor=none;fillColor=none;spacingLeft=4;fontSize=14;verticalAlign=top;resizable=0;rotatable=0;part=1;labelBackgroundColor=none;fontColor=#000000;" vertex="1" parent="ezdcHsapc2x5eiXMY743-7">
          <mxGeometry y="30" width="170" height="140" as="geometry" />
        </mxCell>
        <mxCell id="ezdcHsapc2x5eiXMY743-13" value="&lt;font color=&quot;#ff8000&quot;&gt;Extend&lt;/font&gt;" style="text;html=1;align=center;verticalAlign=middle;resizable=0;points=[];autosize=1;strokeColor=none;fillColor=none;fontSize=20;fontColor=#000000;" vertex="1" parent="1">
          <mxGeometry x="330" y="1580" width="80" height="30" as="geometry" />
        </mxCell>
        <mxCell id="ezdcHsapc2x5eiXMY743-15" value="&lt;font color=&quot;#ff8000&quot;&gt;Entities&lt;/font&gt;" style="text;html=1;align=center;verticalAlign=middle;resizable=0;points=[];autosize=1;strokeColor=none;fillColor=none;fontSize=20;fontColor=#000000;" vertex="1" parent="1">
          <mxGeometry x="374" y="1360" width="80" height="30" as="geometry" />
        </mxCell>
        <mxCell id="ezdcHsapc2x5eiXMY743-17" value="PersonalDto" style="swimlane;childLayout=stackLayout;horizontal=1;startSize=30;horizontalStack=0;rounded=1;fontSize=14;fontStyle=0;strokeWidth=2;resizeParent=0;resizeLast=1;shadow=0;dashed=0;align=center;labelBackgroundColor=none;fontColor=#000000;fillColor=#00CC00;" vertex="1" parent="1">
          <mxGeometry x="329" y="2030" width="170" height="140" as="geometry" />
        </mxCell>
        <mxCell id="ezdcHsapc2x5eiXMY743-18" value="- nombre String&#xa;- apellidos String &#xa;- dni String&#xa;- password String" style="align=left;strokeColor=none;fillColor=none;spacingLeft=4;fontSize=14;verticalAlign=top;resizable=0;rotatable=0;part=1;labelBackgroundColor=none;fontColor=#000000;" vertex="1" parent="ezdcHsapc2x5eiXMY743-17">
          <mxGeometry y="30" width="170" height="110" as="geometry" />
        </mxCell>
        <mxCell id="ezdcHsapc2x5eiXMY743-19" style="edgeStyle=orthogonalEdgeStyle;rounded=0;orthogonalLoop=1;jettySize=auto;html=1;fontSize=14;fontColor=#000000;strokeColor=#000000;fillColor=#FFFF00;startArrow=classic;startFill=1;" edge="1" parent="1" source="ezdcHsapc2x5eiXMY743-20" target="ezdcHsapc2x5eiXMY743-18">
          <mxGeometry relative="1" as="geometry" />
        </mxCell>
        <mxCell id="ezdcHsapc2x5eiXMY743-20" value="PeriodistaDto" style="swimlane;childLayout=stackLayout;horizontal=1;startSize=30;horizontalStack=0;rounded=1;fontSize=14;fontStyle=0;strokeWidth=2;resizeParent=0;resizeLast=1;shadow=0;dashed=0;align=center;labelBackgroundColor=none;fontColor=#000000;fillColor=#00CC00;" vertex="1" parent="1">
          <mxGeometry x="229" y="2290" width="170" height="170" as="geometry" />
        </mxCell>
        <mxCell id="ezdcHsapc2x5eiXMY743-21" value="- empresa String" style="align=left;strokeColor=none;fillColor=none;spacingLeft=4;fontSize=14;verticalAlign=top;resizable=0;rotatable=0;part=1;labelBackgroundColor=none;fontColor=#000000;" vertex="1" parent="ezdcHsapc2x5eiXMY743-20">
          <mxGeometry y="30" width="170" height="140" as="geometry" />
        </mxCell>
        <mxCell id="ezdcHsapc2x5eiXMY743-22" style="edgeStyle=orthogonalEdgeStyle;rounded=0;orthogonalLoop=1;jettySize=auto;html=1;entryX=0.5;entryY=1;entryDx=0;entryDy=0;fontSize=14;fontColor=#000000;strokeColor=#000000;fillColor=#FFFF00;startArrow=classic;startFill=1;" edge="1" parent="1" source="ezdcHsapc2x5eiXMY743-23" target="ezdcHsapc2x5eiXMY743-18">
          <mxGeometry relative="1" as="geometry" />
        </mxCell>
        <mxCell id="ezdcHsapc2x5eiXMY743-23" value="ParticipanteDto" style="swimlane;childLayout=stackLayout;horizontal=1;startSize=30;horizontalStack=0;rounded=1;fontSize=14;fontStyle=0;strokeWidth=2;resizeParent=0;resizeLast=1;shadow=0;dashed=0;align=center;labelBackgroundColor=none;fontColor=#000000;fillColor=#00CC00;" vertex="1" parent="1">
          <mxGeometry x="429" y="2290" width="170" height="170" as="geometry" />
        </mxCell>
        <mxCell id="ezdcHsapc2x5eiXMY743-24" value="- nacimiento LocalDate&#xa;- puntuacion int" style="align=left;strokeColor=none;fillColor=none;spacingLeft=4;fontSize=14;verticalAlign=top;resizable=0;rotatable=0;part=1;labelBackgroundColor=none;fontColor=#000000;" vertex="1" parent="ezdcHsapc2x5eiXMY743-23">
          <mxGeometry y="30" width="170" height="140" as="geometry" />
        </mxCell>
        <mxCell id="ezdcHsapc2x5eiXMY743-25" style="edgeStyle=orthogonalEdgeStyle;rounded=0;orthogonalLoop=1;jettySize=auto;html=1;fontSize=14;fontColor=#000000;strokeColor=#000000;fillColor=#FFFF00;startArrow=classic;startFill=1;" edge="1" parent="1" source="ezdcHsapc2x5eiXMY743-26" target="ezdcHsapc2x5eiXMY743-18">
          <mxGeometry relative="1" as="geometry">
            <Array as="points">
              <mxPoint x="714" y="2230" />
              <mxPoint x="414" y="2230" />
            </Array>
          </mxGeometry>
        </mxCell>
        <mxCell id="ezdcHsapc2x5eiXMY743-26" value="AdministradorDto" style="swimlane;childLayout=stackLayout;horizontal=1;startSize=30;horizontalStack=0;rounded=1;fontSize=14;fontStyle=0;strokeWidth=2;resizeParent=0;resizeLast=1;shadow=0;dashed=0;align=center;labelBackgroundColor=none;fontColor=#000000;fillColor=#00CC00;" vertex="1" parent="1">
          <mxGeometry x="629" y="2290" width="170" height="170" as="geometry" />
        </mxCell>
        <mxCell id="ezdcHsapc2x5eiXMY743-27" value="- fechaBaja LocalDate" style="align=left;strokeColor=none;fillColor=none;spacingLeft=4;fontSize=14;verticalAlign=top;resizable=0;rotatable=0;part=1;labelBackgroundColor=none;fontColor=#000000;" vertex="1" parent="ezdcHsapc2x5eiXMY743-26">
          <mxGeometry y="30" width="170" height="140" as="geometry" />
        </mxCell>
        <mxCell id="ezdcHsapc2x5eiXMY743-28" style="edgeStyle=orthogonalEdgeStyle;rounded=0;orthogonalLoop=1;jettySize=auto;html=1;entryX=0.5;entryY=1;entryDx=0;entryDy=0;fontSize=14;fontColor=#000000;strokeColor=#000000;fillColor=#FFFF00;startArrow=classic;startFill=1;" edge="1" parent="1" source="ezdcHsapc2x5eiXMY743-29" target="ezdcHsapc2x5eiXMY743-18">
          <mxGeometry relative="1" as="geometry">
            <Array as="points">
              <mxPoint x="114" y="2230" />
              <mxPoint x="414" y="2230" />
            </Array>
          </mxGeometry>
        </mxCell>
        <mxCell id="ezdcHsapc2x5eiXMY743-29" value="JuezDto" style="swimlane;childLayout=stackLayout;horizontal=1;startSize=30;horizontalStack=0;rounded=1;fontSize=14;fontStyle=0;strokeWidth=2;resizeParent=0;resizeLast=1;shadow=0;dashed=0;align=center;labelBackgroundColor=none;fontColor=#000000;fillColor=#00CC00;" vertex="1" parent="1">
          <mxGeometry x="29" y="2290" width="170" height="170" as="geometry" />
        </mxCell>
        <mxCell id="ezdcHsapc2x5eiXMY743-30" value="- numeroJuez Long" style="align=left;strokeColor=none;fillColor=none;spacingLeft=4;fontSize=14;verticalAlign=top;resizable=0;rotatable=0;part=1;labelBackgroundColor=none;fontColor=#000000;" vertex="1" parent="ezdcHsapc2x5eiXMY743-29">
          <mxGeometry y="30" width="170" height="140" as="geometry" />
        </mxCell>
        <mxCell id="ezdcHsapc2x5eiXMY743-31" value="&lt;font color=&quot;#ff8000&quot;&gt;Extend&lt;/font&gt;" style="text;html=1;align=center;verticalAlign=middle;resizable=0;points=[];autosize=1;strokeColor=none;fillColor=none;fontSize=20;fontColor=#000000;" vertex="1" parent="1">
          <mxGeometry x="330" y="2180" width="80" height="30" as="geometry" />
        </mxCell>
        <mxCell id="ezdcHsapc2x5eiXMY743-32" value="&lt;font color=&quot;#ff8000&quot;&gt;DTO &amp;amp; Enums&lt;/font&gt;" style="text;html=1;align=center;verticalAlign=middle;resizable=0;points=[];autosize=1;strokeColor=none;fillColor=none;fontSize=20;fontColor=#000000;" vertex="1" parent="1">
          <mxGeometry x="345" y="1960" width="140" height="30" as="geometry" />
        </mxCell>
        <mxCell id="ezdcHsapc2x5eiXMY743-33" value="LoginDto" style="swimlane;childLayout=stackLayout;horizontal=1;startSize=30;horizontalStack=0;rounded=1;fontSize=14;fontStyle=0;strokeWidth=2;resizeParent=0;resizeLast=1;shadow=0;dashed=0;align=center;labelBackgroundColor=none;fontColor=#000000;fillColor=#00CC00;" vertex="1" parent="1">
          <mxGeometry x="29" y="2500" width="170" height="100" as="geometry" />
        </mxCell>
        <mxCell id="ezdcHsapc2x5eiXMY743-34" value="- name String&#xa;- password String" style="align=left;strokeColor=none;fillColor=none;spacingLeft=4;fontSize=14;verticalAlign=top;resizable=0;rotatable=0;part=1;labelBackgroundColor=none;fontColor=#000000;" vertex="1" parent="ezdcHsapc2x5eiXMY743-33">
          <mxGeometry y="30" width="170" height="70" as="geometry" />
        </mxCell>
        <mxCell id="ezdcHsapc2x5eiXMY743-35" value="RegisterDto" style="swimlane;childLayout=stackLayout;horizontal=1;startSize=30;horizontalStack=0;rounded=1;fontSize=14;fontStyle=0;strokeWidth=2;resizeParent=0;resizeLast=1;shadow=0;dashed=0;align=center;labelBackgroundColor=none;fontColor=#000000;fillColor=#00CC00;" vertex="1" parent="1">
          <mxGeometry x="230" y="2500" width="170" height="190" as="geometry" />
        </mxCell>
        <mxCell id="ezdcHsapc2x5eiXMY743-36" value="- nombre String&#xa;- apellidos String &#xa;- dni String&#xa;- password String&#xa;- numeroJuez Long&#xa;- empresa String&#xa;- nacimiento LocalDate&#xa;- puntuacion int" style="align=left;strokeColor=none;fillColor=none;spacingLeft=4;fontSize=14;verticalAlign=top;resizable=0;rotatable=0;part=1;labelBackgroundColor=none;fontColor=#000000;" vertex="1" parent="ezdcHsapc2x5eiXMY743-35">
          <mxGeometry y="30" width="170" height="160" as="geometry" />
        </mxCell>
        <mxCell id="ezdcHsapc2x5eiXMY743-37" value="TypePersonal" style="swimlane;childLayout=stackLayout;horizontal=1;startSize=30;horizontalStack=0;rounded=1;fontSize=14;fontStyle=0;strokeWidth=2;resizeParent=0;resizeLast=1;shadow=0;dashed=0;align=center;labelBackgroundColor=none;fontColor=#000000;fillColor=#FFFF00;" vertex="1" parent="1">
          <mxGeometry x="30" y="2760" width="170" height="130" as="geometry" />
        </mxCell>
        <mxCell id="ezdcHsapc2x5eiXMY743-38" value="- ADMIN&#xa;- JUEZ&#xa;- PARTICIPANTE&#xa;- PERIODISTA" style="align=left;strokeColor=none;fillColor=none;spacingLeft=4;fontSize=14;verticalAlign=top;resizable=0;rotatable=0;part=1;labelBackgroundColor=none;fontColor=#000000;" vertex="1" parent="ezdcHsapc2x5eiXMY743-37">
          <mxGeometry y="30" width="170" height="100" as="geometry" />
        </mxCell>
        <mxCell id="ezdcHsapc2x5eiXMY743-39" value="" style="rounded=0;whiteSpace=wrap;html=1;labelBackgroundColor=#ffffff;fontSize=20;fontColor=#000000;fillColor=none;dashed=1;strokeWidth=2;" vertex="1" parent="1">
          <mxGeometry x="10" y="1990" width="810" height="940" as="geometry" />
        </mxCell>
        <mxCell id="ezdcHsapc2x5eiXMY743-40" value="Class" style="rounded=1;whiteSpace=wrap;html=1;labelBackgroundColor=none;fontSize=14;fontColor=#000000;strokeWidth=2;fillColor=#00CC00;" vertex="1" parent="1">
          <mxGeometry x="654" y="20" width="136" height="30" as="geometry" />
        </mxCell>
        <mxCell id="ezdcHsapc2x5eiXMY743-41" value="Layer" style="rounded=1;whiteSpace=wrap;html=1;labelBackgroundColor=none;fontSize=14;fontColor=#000000;strokeWidth=2;fillColor=#26B7FF;" vertex="1" parent="1">
          <mxGeometry x="654" y="60" width="136" height="30" as="geometry" />
        </mxCell>
        <mxCell id="ezdcHsapc2x5eiXMY743-42" value="Function" style="rounded=1;whiteSpace=wrap;html=1;labelBackgroundColor=none;fontSize=14;fontColor=#000000;strokeWidth=2;fillColor=#FF3333;" vertex="1" parent="1">
          <mxGeometry x="654" y="100" width="136" height="30" as="geometry" />
        </mxCell>
        <mxCell id="ezdcHsapc2x5eiXMY743-43" value="Enum" style="rounded=1;whiteSpace=wrap;html=1;labelBackgroundColor=none;fontSize=14;fontColor=#000000;strokeWidth=2;fillColor=#FFFF00;" vertex="1" parent="1">
          <mxGeometry x="654" y="140" width="136" height="30" as="geometry" />
        </mxCell>
      </root>
    </mxGraphModel>
  </diagram>
</mxfile>
